# xmcd
#
# Track frame offsets: 
#        182
#        11310
#        23265
#        32707
#        42420
#        55052
#        69497
#        80635
#        90302
#        101132
#        110057
#        122392
#        131535
#        141657
#        157635
#        169242
#        180125
#        192215
#        199397
#        212362
#        224215
#        234847
#
# Disc length: 3284 seconds
#
# Revision: 3
# Processed by: cddbd v1.5.2PL0 Copyright (c) Steve Scherf et al.
# Submitted via: ExactAudioCopy v0.99pb4
#
DISCID=230cd216
DTITLE=Various Artist - Rock 'N' Roll Era - 1960
DYEAR=1987
DGENRE=Oldies
TTITLE0=Drifters - Save The Last Dance For Me
TTITLE1=Hank Ballard And The Midnighters - Finger Poppin' Time
TTITLE2=Ventures - Walk Don't Run
TTITLE3=Sam Cooke - Wonderful World
TTITLE4=Jerry Butler - He Will Break Your Heart
TTITLE5=Kathy Young And The Innocents - A Thousand Stars
TTITLE6=Roy Orbison - Only The Lonely
TTITLE7=Jimmy Jones - Good Timin'
TTITLE8=Brenda Lee - Sweet Nothin's
TTITLE9=Fats Domino - Walking To New Orleans
TTITLE10=Hollywood Argyles - Alley-Oop
TTITLE11=Jimmy Jones - Handy Man
TTITLE12=Conway Twitty - Lonely Blue Boy
TTITLE13=Rosie And The Originals - Angel Baby
TTITLE14=Sam Cooke - Chain Gang
TTITLE15=Hank Ballard And The Midnighters - Let's Go Let's Go Let's Go
TTITLE16=Neil Sedaka - Calendar Girl
TTITLE17=Maurice Williams And The Zodiacs - Stay
TTITLE18=Gary U.S. Bonds - New Orleans
TTITLE19=Joe Jones - You Talk Too Much
TTITLE20=Billy Bland - Let The Little Girl Dance
TTITLE21=Safaris - Image Of A Girl
EXTD=
EXTT0=
EXTT1=
EXTT2=
EXTT3=
EXTT4=
EXTT5=
EXTT6=
EXTT7=
EXTT8=
EXTT9=
EXTT10=
EXTT11=
EXTT12=
EXTT13=
EXTT14=
EXTT15=
EXTT16=
EXTT17=
EXTT18=
EXTT19=
EXTT20=
EXTT21=
PLAYORDER=
